<?xml version="1.0" encoding="UTF-8"?>
<svg version="1.1" xmlns="http://www.w3.org/2000/svg" width="512" height="512">
<path d="M0 0 C10.40062704 9.85490476 18.53016926 21.01655441 25.34375 33.6015625 C25.72805176 34.29838135 26.11235352 34.9952002 26.50830078 35.71313477 C30.72111213 43.8300835 33.27163536 52.60189008 36.03125 61.2890625 C36.28772308 62.09129242 36.54419617 62.89352234 36.80844116 63.72006226 C38.37777367 68.63473761 39.9213595 73.55689384 41.44604492 78.4855957 C41.96317405 80.15266316 42.48370993 81.81867748 43.00756836 83.48364258 C51.82756094 111.51891203 55.71037981 136.96901154 41.69384766 163.8762207 C40.39448006 166.34488999 39.0675468 168.79622353 37.72021484 171.23901367 C36.79716553 172.92861206 36.79716553 172.92861206 35.85546875 174.65234375 C35.28916748 175.66594971 34.72286621 176.67955566 34.1394043 177.72387695 C32.67496346 180.33107261 32.67496346 180.33107261 34.03125 183.2890625 C35.46920986 184.6532956 35.46920986 184.6532956 37.27734375 185.890625 C38.27882446 186.6187439 38.27882446 186.6187439 39.30053711 187.36157227 C40.01604736 187.87389404 40.73155762 188.38621582 41.46875 188.9140625 C64.99171934 206.20278091 80.1698923 227.58328883 85.6496582 256.49023438 C89.11681319 281.92047415 85.13240592 307.09914227 70.30078125 328.33984375 C53.13524622 350.64617584 29.1627121 366.23140797 1.03125 370.2890625 C-3.19637654 370.50131782 -7.42376854 370.47416992 -11.65625 370.4765625 C-12.77708984 370.48880859 -13.89792969 370.50105469 -15.05273438 370.51367188 C-22.24338113 370.52619186 -28.94816456 369.8498804 -35.96875 368.2890625 C-36.10591431 369.41683105 -36.10591431 369.41683105 -36.24584961 370.56738281 C-37.58472324 380.80107512 -42.32710507 387.91059271 -50.26675224 394.4399929 C-59.4444365 400.72059653 -70.47004049 400.85673226 -81.19482422 400.73974609 C-82.67304969 400.73865466 -84.1512775 400.73941668 -85.62950134 400.74186707 C-88.78443061 400.74364078 -91.93900066 400.73344482 -95.09386826 400.71378708 C-100.08725678 400.68365076 -105.0803074 400.68651279 -110.07376099 400.69448853 C-122.46522397 400.7095154 -134.85658558 400.68777704 -147.24798584 400.64666748 C-156.90372937 400.61470336 -166.55907798 400.59546916 -176.21486866 400.61817992 C-181.17504948 400.62841228 -186.13412551 400.61118166 -191.09415889 400.57303977 C-194.17897855 400.55547683 -197.26337123 400.56289785 -200.34819221 400.57718849 C-201.77401605 400.57876571 -203.19989496 400.57011898 -204.62558174 400.55028725 C-213.54751203 400.23506307 -213.54751203 400.23506307 -221.17288208 404.20767212 C-222.10917023 405.23085477 -223.04151337 406.25767001 -223.96875 407.2890625 C-241.39949706 418.30358365 -260.98407859 419.26136945 -280.78857422 414.83691406 C-287.89487107 413.0511884 -295.41042632 410.8020668 -301.42871094 406.55175781 C-310.9150457 400.03632691 -319.51311923 400.36677094 -330.59375 400.5390625 C-357.87346382 400.73755296 -357.87346382 400.73755296 -368.96875 391.2890625 C-376.96121869 383.0482841 -379.32973941 374.99977532 -379.2046051 363.65722656 C-379.17962448 362.46323242 -379.15464386 361.26923828 -379.12890625 360.0390625 C-379.11707006 357.46615453 -379.1073694 354.893236 -379.09960938 352.3203125 C-379.07281821 348.29721341 -379.03474779 344.27620154 -378.9519043 340.25390625 C-378.88246012 336.3478503 -378.87600255 332.44564698 -378.87890625 328.5390625 C-378.83975601 327.34506836 -378.80060577 326.15107422 -378.76026917 324.92089844 C-378.80295917 319.88011315 -378.91813143 316.5975764 -382.14303589 312.58105469 C-384.65741486 310.30593656 -387.23053192 308.28515453 -389.96875 306.2890625 C-399.42999664 297.95560691 -406.52728245 287.04588835 -410.96875 275.2890625 C-411.28714844 274.51175781 -411.60554688 273.73445313 -411.93359375 272.93359375 C-416.58898511 259.43939482 -415.57198054 242.29523669 -409.96875 229.2890625 C-409.64132812 228.43699219 -409.31390625 227.58492188 -408.9765625 226.70703125 C-404.04492644 215.27787468 -392.11920539 202.8642902 -380.96875 197.2890625 C-380.30875 197.2890625 -379.64875 197.2890625 -378.96875 197.2890625 C-379.09734012 196.41267482 -379.09734012 196.41267482 -379.22852802 195.51858234 C-395.2290913 84.52884095 -395.2290913 84.52884095 -365.15598261 43.1206426 C-356.92696623 32.11980246 -347.62809745 22.21796524 -337.71875 12.7265625 C-337.20464443 12.2322887 -336.69053886 11.7380149 -336.16085434 11.2287631 C-310.7654871 -13.08074811 -284.06830627 -32.1627994 -247.47639275 -31.96516514 C-236.28274073 -31.66160251 -225.20610207 -30.19772185 -214.18481445 -28.27732849 C-202.29143989 -26.26190215 -194.40952292 -27.65266328 -183.96875 -33.7109375 C-180.88673704 -34.83103399 -177.77477132 -35.67277338 -174.59375 -36.4609375 C-173.43903198 -36.75532715 -173.43903198 -36.75532715 -172.26098633 -37.05566406 C-113.91377857 -51.34093384 -45.12410731 -41.6281641 0 0 Z " fill="#ECECEC" transform="translate(419.96875,68.7109375)"/>
<path d="M0 0 C10.40062704 9.85490476 18.53016926 21.01655441 25.34375 33.6015625 C25.72805176 34.29838135 26.11235352 34.9952002 26.50830078 35.71313477 C30.72111213 43.8300835 33.27163536 52.60189008 36.03125 61.2890625 C36.28772308 62.09129242 36.54419617 62.89352234 36.80844116 63.72006226 C38.37777367 68.63473761 39.9213595 73.55689384 41.44604492 78.4855957 C41.96317405 80.15266316 42.48370993 81.81867748 43.00756836 83.48364258 C51.82756094 111.51891203 55.71037981 136.96901154 41.69384766 163.8762207 C40.39448006 166.34488999 39.0675468 168.79622353 37.72021484 171.23901367 C36.79716553 172.92861206 36.79716553 172.92861206 35.85546875 174.65234375 C35.28916748 175.66594971 34.72286621 176.67955566 34.1394043 177.72387695 C32.67496346 180.33107261 32.67496346 180.33107261 34.03125 183.2890625 C35.46920986 184.6532956 35.46920986 184.6532956 37.27734375 185.890625 C38.27882446 186.6187439 38.27882446 186.6187439 39.30053711 187.36157227 C40.01604736 187.87389404 40.73155762 188.38621582 41.46875 188.9140625 C64.99171934 206.20278091 80.1698923 227.58328883 85.6496582 256.49023438 C89.11681319 281.92047415 85.13240592 307.09914227 70.30078125 328.33984375 C53.13524622 350.64617584 29.1627121 366.23140797 1.03125 370.2890625 C-3.19637654 370.50131782 -7.42376854 370.47416992 -11.65625 370.4765625 C-12.77708984 370.48880859 -13.89792969 370.50105469 -15.05273438 370.51367188 C-22.24338113 370.52619186 -28.94816456 369.8498804 -35.96875 368.2890625 C-36.10591431 369.41683105 -36.10591431 369.41683105 -36.24584961 370.56738281 C-37.58472324 380.80107512 -42.32710507 387.91059271 -50.26675224 394.4399929 C-59.4444365 400.72059653 -70.47004049 400.85673226 -81.19482422 400.73974609 C-82.67304969 400.73865466 -84.1512775 400.73941668 -85.62950134 400.74186707 C-88.78443061 400.74364078 -91.93900066 400.73344482 -95.09386826 400.71378708 C-100.08725678 400.68365076 -105.0803074 400.68651279 -110.07376099 400.69448853 C-122.46522397 400.7095154 -134.85658558 400.68777704 -147.24798584 400.64666748 C-156.90372937 400.61470336 -166.55907798 400.59546916 -176.21486866 400.61817992 C-181.17504948 400.62841228 -186.13412551 400.61118166 -191.09415889 400.57303977 C-194.17897855 400.55547683 -197.26337123 400.56289785 -200.34819221 400.57718849 C-201.77401605 400.57876571 -203.19989496 400.57011898 -204.62558174 400.55028725 C-213.54751203 400.23506307 -213.54751203 400.23506307 -221.17288208 404.20767212 C-222.10917023 405.23085477 -223.04151337 406.25767001 -223.96875 407.2890625 C-241.39949706 418.30358365 -260.98407859 419.26136945 -280.78857422 414.83691406 C-287.89487107 413.0511884 -295.41042632 410.8020668 -301.42871094 406.55175781 C-310.9150457 400.03632691 -319.51311923 400.36677094 -330.59375 400.5390625 C-357.87346382 400.73755296 -357.87346382 400.73755296 -368.96875 391.2890625 C-376.96121869 383.0482841 -379.32973941 374.99977532 -379.2046051 363.65722656 C-379.17962448 362.46323242 -379.15464386 361.26923828 -379.12890625 360.0390625 C-379.11707006 357.46615453 -379.1073694 354.893236 -379.09960938 352.3203125 C-379.07281821 348.29721341 -379.03474779 344.27620154 -378.9519043 340.25390625 C-378.88246012 336.3478503 -378.87600255 332.44564698 -378.87890625 328.5390625 C-378.83975601 327.34506836 -378.80060577 326.15107422 -378.76026917 324.92089844 C-378.80295917 319.88011315 -378.91813143 316.5975764 -382.14303589 312.58105469 C-384.65741486 310.30593656 -387.23053192 308.28515453 -389.96875 306.2890625 C-399.42999664 297.95560691 -406.52728245 287.04588835 -410.96875 275.2890625 C-411.28714844 274.51175781 -411.60554688 273.73445313 -411.93359375 272.93359375 C-416.58898511 259.43939482 -415.57198054 242.29523669 -409.96875 229.2890625 C-409.64132812 228.43699219 -409.31390625 227.58492188 -408.9765625 226.70703125 C-404.04492644 215.27787468 -392.11920539 202.8642902 -380.96875 197.2890625 C-380.30875 197.2890625 -379.64875 197.2890625 -378.96875 197.2890625 C-379.09734012 196.41267482 -379.09734012 196.41267482 -379.22852802 195.51858234 C-395.2290913 84.52884095 -395.2290913 84.52884095 -365.15598261 43.1206426 C-356.92696623 32.11980246 -347.62809745 22.21796524 -337.71875 12.7265625 C-337.20464443 12.2322887 -336.69053886 11.7380149 -336.16085434 11.2287631 C-310.7654871 -13.08074811 -284.06830627 -32.1627994 -247.47639275 -31.96516514 C-236.28274073 -31.66160251 -225.20610207 -30.19772185 -214.18481445 -28.27732849 C-202.29143989 -26.26190215 -194.40952292 -27.65266328 -183.96875 -33.7109375 C-180.88673704 -34.83103399 -177.77477132 -35.67277338 -174.59375 -36.4609375 C-173.43903198 -36.75532715 -173.43903198 -36.75532715 -172.26098633 -37.05566406 C-113.91377857 -51.34093384 -45.12410731 -41.6281641 0 0 Z M-279.96875 -16.7109375 C-279.97017502 -15.7765686 -279.97160004 -14.84219971 -279.97306824 -13.8795166 C-279.98977452 -5.05208583 -280.03265857 3.7748861 -280.10084057 12.60207367 C-280.13505751 17.13973026 -280.16021227 21.67705207 -280.16430664 26.21484375 C-280.16860102 30.59829663 -280.19715736 34.98099498 -280.24218178 39.36421204 C-280.25512054 41.0322072 -280.25947733 42.70029283 -280.25490379 44.36833191 C-280.21932912 61.29022456 -280.21932912 61.29022456 -285.96875 67.2890625 C-291.33473578 72.38674899 -296.02426893 73.53324157 -303.3293457 73.60791016 C-304.41308723 73.62297859 -304.41308723 73.62297859 -305.51872253 73.63835144 C-307.89398442 73.66910912 -310.26913396 73.68619766 -312.64453125 73.703125 C-314.29649314 73.72184264 -315.94844553 73.7414165 -317.60038757 73.7618103 C-321.93875521 73.81307461 -326.27715382 73.85273076 -330.61566162 73.88995361 C-335.04658638 73.93002907 -339.47738291 73.98110524 -343.90820312 74.03125 C-352.59496439 74.12794176 -361.28178927 74.21236804 -369.96875 74.2890625 C-370.08323401 112.08224618 -370.17131849 149.87540371 -370.22407665 187.66872575 C-370.23033006 192.13217813 -370.23680168 196.59563016 -370.2434082 201.05908203 C-370.24471976 201.94766213 -370.24603131 202.83624223 -370.2473826 203.75174899 C-370.26912974 218.13306785 -370.30854745 232.51428661 -370.35451398 246.89554612 C-370.40129789 261.65581014 -370.42904949 276.41602179 -370.43919247 291.17635691 C-370.44604763 300.2818077 -370.46768643 309.38697553 -370.50833233 318.49233921 C-370.5347946 324.73913964 -370.54274313 330.98579412 -370.53625689 337.23264651 C-370.53305937 340.83500335 -370.53790547 344.43686631 -370.56477737 348.03913498 C-370.59374237 351.95069919 -370.58365936 355.86162537 -370.57002258 359.77328491 C-370.58458679 360.90365909 -370.599151 362.03403327 -370.61415654 363.19866121 C-370.5378993 371.30266203 -368.81154807 378.09921881 -363.21328622 384.20306337 C-356.01474278 390.97473944 -348.87533013 391.72879603 -339.36782837 391.67001343 C-338.20438506 391.6746934 -337.04094176 391.67937337 -335.8422426 391.68419516 C-332.62586834 391.69406864 -329.40983557 391.69054517 -326.19347 391.68123651 C-322.71961428 391.67443697 -319.24580403 391.68493182 -315.7719574 391.69317627 C-308.97126678 391.70650702 -302.17067556 391.70363857 -295.36998107 391.69493835 C-289.84104044 391.6881585 -284.31212764 391.68724639 -278.78318405 391.6905098 C-277.99575303 391.6909695 -277.20832202 391.69142919 -276.39702945 391.69190282 C-274.79726676 391.69286202 -273.19750408 391.69383466 -271.59774141 391.6948206 C-256.60056213 391.70337285 -241.60343787 391.69354353 -226.60626762 391.6774195 C-213.74692427 391.66402168 -200.88766219 391.66634029 -188.02832031 391.68017578 C-173.08728205 391.69624351 -158.14629203 391.7025434 -143.20524633 391.69333899 C-141.61081339 391.69238337 -140.01638044 391.69144026 -138.42194748 391.6905098 C-137.63750738 391.69004697 -136.85306727 391.68958414 -136.04485626 391.68910729 C-130.52562626 391.68652059 -125.00642694 391.6908816 -119.48720169 391.69794846 C-112.75652201 391.70637715 -106.02594724 391.70405483 -99.29527952 391.68810622 C-95.86325561 391.68024105 -92.4314064 391.67710167 -88.99938393 391.68705368 C-85.27396171 391.69525897 -81.54902994 391.6849588 -77.82363892 391.67001343 C-76.74570906 391.67670559 -75.66777921 391.68339776 -74.55718482 391.69029272 C-65.68544817 391.62132631 -58.13871215 390.2256573 -51.47265625 384.0390625 C-46.55440499 378.31600648 -44.84193032 371.92762392 -44.85522461 364.52270508 C-44.85500557 363.49792305 -44.85500557 363.49792305 -44.8547821 362.45243835 C-44.85547831 360.19612443 -44.86325704 357.93989324 -44.87109375 355.68359375 C-44.87295897 354.11846461 -44.87438238 352.55333489 -44.87538147 350.98820496 C-44.87919848 346.87002957 -44.88902182 342.75188948 -44.90008545 338.63372803 C-44.91031709 334.43095375 -44.91488285 330.22817377 -44.91992188 326.02539062 C-44.93064481 317.77993172 -44.94771146 309.5345015 -44.96875 301.2890625 C-48.22063586 301.90450206 -51.46984779 302.53307736 -54.71875 303.1640625 C-55.63914062 303.33808594 -56.55953125 303.51210938 -57.5078125 303.69140625 C-58.39726562 303.86542969 -59.28671875 304.03945313 -60.203125 304.21875 C-61.02006836 304.37585449 -61.83701172 304.53295898 -62.67871094 304.69482422 C-65.04773718 305.30955875 -66.89752252 305.98244181 -68.96875 307.2890625 C-70.29415483 309.84052261 -71.38411111 312.25690992 -72.421875 314.921875 C-72.72695984 315.67371063 -73.03204468 316.42554626 -73.34637451 317.20016479 C-74.3167145 319.59984494 -75.26787226 322.00661295 -76.21875 324.4140625 C-76.8737499 326.04347183 -77.52998549 327.67238501 -78.1875 329.30078125 C-79.79563898 333.29126192 -81.38661795 337.28820339 -82.96875 341.2890625 C-84.61875 341.2890625 -86.26875 341.2890625 -87.96875 341.2890625 C-89.51018308 336.58434066 -88.16018579 333.48634533 -86.1875 329.1953125 C-85.74899719 328.19159607 -85.74899719 328.19159607 -85.30163574 327.16760254 C-84.05488015 324.31495255 -82.77727252 321.47641762 -81.50244141 318.63623047 C-80.57417974 316.55633376 -79.6618284 314.46995341 -78.75 312.3828125 C-78.45734253 311.74621704 -78.16468506 311.10962158 -77.86315918 310.45373535 C-76.20481945 306.65270815 -75.55475977 304.23683605 -76.96875 300.2890625 C-78.01396513 298.27296265 -78.01396513 298.27296265 -79.3671875 296.3984375 C-79.84671875 295.68816406 -80.32625 294.97789062 -80.8203125 294.24609375 C-81.82611244 292.78897333 -82.83388722 291.33321385 -83.84375 289.87890625 C-90.05394493 280.66324265 -92.11215769 272.45493267 -90.96875 261.2890625 C-89.92314504 256.36763849 -88.46109442 251.63356596 -86.90625 246.8515625 C-86.49069314 245.52696731 -86.0768178 244.20184351 -85.66455078 242.8762207 C-84.45534943 239.00633442 -83.21458928 235.14731115 -81.96875 231.2890625 C-81.33164987 229.30220558 -80.69489355 227.31523837 -80.05859375 225.328125 C-79.2061476 222.66659073 -78.35304275 220.00532705 -77.49389648 217.34594727 C-74.97950276 209.49781506 -72.78268054 201.57185826 -70.59985352 193.6262207 C-68.39509754 185.65851371 -65.9562168 177.78684464 -63.38720703 169.9296875 C-61.86054837 165.2274748 -60.48028441 160.53938977 -59.31713867 155.734375 C-56.71656561 145.04774986 -56.71656561 145.04774986 -51.96875 141.2890625 C-48.85760833 139.83225807 -45.74187957 138.54752454 -42.515625 137.3671875 C-39.83169564 136.55606518 -39.83169564 136.55606518 -38.96875 134.2890625 C-39.91371341 132.29145182 -40.89125347 130.30924982 -41.88061523 128.33325195 C-46.38962478 118.05110029 -45.66060107 107.36067088 -45.45030403 96.34084129 C-45.37753651 92.50991987 -45.34285448 88.68021899 -45.31724548 84.84870911 C-45.26110932 77.41277378 -45.16510219 69.97781849 -45.06018829 62.54243469 C-44.91832219 52.41477347 -44.80079009 42.28746844 -44.72799492 32.1590519 C-44.69203056 28.39733122 -44.62497703 24.63702057 -44.5561676 20.8757782 C-44.5348 18.55936939 -44.51478519 16.24294758 -44.49633789 13.92651367 C-44.46893524 12.8919957 -44.44153259 11.85747772 -44.41329956 10.79161072 C-44.39879497 2.91232779 -46.3324523 -3.67290366 -51.69542027 -9.62836933 C-58.09706442 -15.76454858 -65.54956539 -17.16350192 -74.09301758 -17.07170105 C-74.97781673 -17.07426432 -75.86261589 -17.0768276 -76.77422714 -17.07946855 C-79.72076756 -17.0843857 -82.66678853 -17.06794775 -85.61328125 -17.05151367 C-87.73266081 -17.05066695 -89.85204124 -17.05114342 -91.97142029 -17.05284119 C-97.71257644 -17.05370081 -103.45354399 -17.0360802 -109.19465637 -17.01511931 C-115.19909709 -16.99634713 -121.20354228 -16.99460164 -127.20800781 -16.99104309 C-138.57276693 -16.98172424 -149.93743931 -16.95711254 -161.30216026 -16.92699462 C-174.24283707 -16.89344571 -187.18351805 -16.87696335 -200.12422752 -16.86190832 C-226.7391164 -16.83056291 -253.35392834 -16.77780543 -279.96875 -16.7109375 Z " fill="#37318F" transform="translate(419.96875,68.7109375)"/>
<path d="M0 0 C0.44988281 0.3403125 0.89976562 0.680625 1.36328125 1.03125 C4.4297371 3.34184599 7.49611211 5.64286104 10.62890625 7.86328125 C34.25332307 24.63224852 49.2089602 46.66516844 54.6184082 75.20117188 C58.08556319 100.63141165 54.10115592 125.81007977 39.26953125 147.05078125 C22.10399622 169.35711334 -1.8685379 184.94234547 -30 189 C-34.22762654 189.21225532 -38.45501854 189.18510742 -42.6875 189.1875 C-43.80833984 189.19974609 -44.92917969 189.21199219 -46.08398438 189.22460938 C-53.2138634 189.23702356 -60.0725926 188.79851745 -67 187 C-68.86242537 185.13757463 -68.17650832 182.02949159 -68.20874023 179.54003906 C-68.21852402 178.86517456 -68.2283078 178.19031006 -68.23838806 177.49499512 C-68.26840719 175.25189198 -68.2897478 173.00884887 -68.30859375 170.765625 C-68.31516558 170.00050346 -68.3217374 169.23538193 -68.32850838 168.44707489 C-68.36113416 164.39539947 -68.38557429 160.34375066 -68.4050293 156.29199219 C-68.4228329 152.93743576 -68.45763088 149.58372153 -68.50756836 146.22949219 C-68.56775883 142.18227291 -68.59850359 138.13583374 -68.60820198 134.08818817 C-68.61676234 132.54596642 -68.63559526 131.00376582 -68.6649456 129.46179962 C-68.70388026 127.29945762 -68.70489475 125.14014859 -68.69702148 122.97753906 C-68.71248268 121.13340424 -68.71248268 121.13340424 -68.72825623 119.25201416 C-67.7395175 114.83682041 -65.57907873 113.61480599 -62 111 C-59.68787274 107.83911724 -59.68787274 107.83911724 -57.75 104.4375 C-56.75226563 102.76494141 -56.75226563 102.76494141 -55.734375 101.05859375 C-53.02360076 96.27810675 -51.55181242 93.60234475 -52 88 C-52.92414941 84.72435637 -52.92414941 84.72435637 -54 82 C-53.34773438 81.81566406 -52.69546875 81.63132812 -52.0234375 81.44140625 C-51.14945312 81.15136719 -50.27546875 80.86132812 -49.375 80.5625 C-48.51648438 80.29566406 -47.65796875 80.02882813 -46.7734375 79.75390625 C-38.96449503 74.81557503 -35.19683573 63.96106942 -31.02438354 55.95819092 C-29.16410094 52.3926536 -27.28596524 48.83657222 -25.40625 45.28125 C-25.03177231 44.57277924 -24.65729462 43.86430847 -24.27146912 43.1343689 C-19.05955715 33.30348762 -13.54036757 23.64862458 -8 14 C-7.14004859 12.49381854 -6.28064013 10.9873269 -5.421875 9.48046875 C-3.61892672 6.31781438 -1.81148074 3.15777761 0 0 Z " fill="#EFEFFD" transform="translate(451,250)"/>
<path d="M0 0 C2.79961181 2.98713715 3.91452953 6.16673789 5.15625 10.0234375 C5.53910156 11.21066406 5.92195313 12.39789063 6.31640625 13.62109375 C6.70699219 14.85988281 7.09757812 16.09867188 7.5 17.375 C7.89058594 18.57511719 8.28117187 19.77523437 8.68359375 21.01171875 C16.39083967 45.17146942 18.77014767 67.88576895 7.08813477 91.0625 C2.05107086 100.76100422 -3.36507434 110.25538539 -8.79077148 119.74023438 C-13.14750795 127.3903378 -17.29632939 135.13850876 -21.40344238 142.92419434 C-23.56479171 147.01567217 -25.74172428 151.09889488 -27.91659546 155.18319702 C-29.58030969 158.31166276 -31.23479399 161.44409023 -32.86279297 164.59130859 C-34.52950919 167.80393767 -36.2291864 170.99685118 -37.9375 174.1875 C-38.40800781 175.11884766 -38.87851562 176.05019531 -39.36328125 177.00976562 C-43.0099086 183.70364373 -47.01386731 186.21117218 -54 189 C-55.33943509 189.65432092 -56.67504925 190.31682525 -58 191 C-58.27061005 195.12953916 -58.27061005 195.12953916 -56.9375 198.9375 C-55.47951978 202.14505649 -55.95119326 204.76157919 -57 208 C-61.10156936 216.55050291 -66.05484176 222.38753225 -75 226 C-80.03426683 227.29707358 -84.79120906 228.12070282 -90 228 C-89.38666259 222.75405166 -87.69723521 218.42724911 -85.6328125 213.625 C-85.28633163 212.80406357 -84.93985077 211.98312714 -84.58287048 211.13731384 C-83.83059875 209.35670458 -83.07541727 207.57732243 -82.31765747 205.79904175 C-80.26294146 200.97683919 -78.2291226 196.14581047 -76.19140625 191.31640625 C-75.76607101 190.31017715 -75.34073578 189.30394806 -74.9025116 188.26722717 C-69.81041654 176.21013407 -64.83088035 164.10669189 -59.85565186 152.00100708 C-52.27024809 133.5458279 -52.27024809 133.5458279 -48.32421875 124.5 C-48.05364151 123.87646133 -47.78306427 123.25292267 -47.50428772 122.61048889 C-46.30437471 119.84647739 -45.0930705 117.08904563 -43.85571289 114.34155273 C-43.45473389 113.42317627 -43.05375488 112.5047998 -42.640625 111.55859375 C-42.29547852 110.78829834 -41.95033203 110.01800293 -41.59472656 109.22436523 C-40.86805747 106.50651543 -41.26925209 104.68641643 -42 102 C-43.98 102 -45.96 102 -48 102 C-48.17187836 102.53947266 -48.34375671 103.07894531 -48.52084351 103.63476562 C-50.38551699 109.37065753 -52.52968348 114.93538736 -54.8515625 120.5 C-55.40860367 121.84556221 -55.40860367 121.84556221 -55.97689819 123.2183075 C-57.19003811 126.14674783 -58.40751302 129.07336461 -59.625 132 C-60.47685378 134.0543226 -61.32841212 136.10876773 -62.1796875 138.16333008 C-64.36025491 143.42417556 -66.5443242 148.68355859 -68.72961426 153.94244385 C-71.80035639 161.33308607 -74.86705329 168.72540852 -77.93380737 176.1177063 C-78.64243131 177.82566908 -79.35119105 179.53357553 -80.06008911 181.24142456 C-86.10351971 195.80203072 -92.08416168 210.38704009 -98 225 C-98.66 225 -99.32 225 -100 225 C-101.60073216 222.65265769 -103.06605011 220.32141929 -104.5 217.875 C-104.90347656 217.20984375 -105.30695313 216.5446875 -105.72265625 215.859375 C-110.50375311 207.81198425 -112.40213872 200.82483787 -110.16748047 191.54150391 C-109.0228079 187.43423698 -107.73107523 183.37476502 -106.4375 179.3125 C-105.97505053 177.82716652 -105.51371646 176.34148534 -105.0534668 174.85546875 C-102.25580887 165.85260958 -99.37239735 156.87650135 -96.47436523 147.90551758 C-93.97968559 140.11028588 -91.80155553 132.23632795 -89.63305664 124.34521484 C-87.41651456 116.33621758 -84.9816239 108.41497232 -82.39648438 100.51757812 C-80.64518688 95.14665383 -79.11001198 89.76326466 -77.73730469 84.28222656 C-76.61127551 80.79675611 -75.20568985 79.73641533 -72 78 C-69.15741835 76.70417769 -66.3136805 75.43798721 -63.42578125 74.24609375 C-60.71759658 73.10360393 -60.71759658 73.10360393 -59 70 C-58.32792799 63.09674185 -60.8026716 58.55965136 -63.78515625 52.5 C-65.20948129 48.39647834 -65.115043 46.17413925 -64 42 C-61.79595386 38.28822518 -58.88825864 35.19908118 -56 32 C-55.24203125 31.14792969 -54.4840625 30.29585937 -53.703125 29.41796875 C-44.39049552 19.51188739 -32.86443528 13.7576672 -20.8125 7.8984375 C-16.56302646 5.81823114 -12.48499166 3.46702375 -8.4296875 1.03125 C-5.36859408 -0.26799222 -3.2916131 -0.46385876 0 0 Z " fill="#F7B940" transform="translate(447,137)"/>
<path d="M0 0 C18.41058885 17.44458281 33.47766692 41.85499036 37.03125 67.2890625 C36.12375 66.5053125 35.21625 65.7215625 34.28125 64.9140625 C29.79396247 61.21309872 26.99311949 59.84736147 21.03125 60.2890625 C18.5108415 61.28261121 16.22403759 62.30633156 13.83203125 63.54296875 C13.15633591 63.88150375 12.48064056 64.22003876 11.7844696 64.5688324 C10.35710291 65.28703425 8.93264663 66.01104615 7.51098633 66.74047852 C5.37395285 67.83607831 3.22819011 68.91264262 1.08007812 69.98632812 C-9.52526934 75.32814364 -19.96352997 80.81047036 -28.59375 89.1015625 C-29.10808594 89.57787109 -29.62242187 90.05417969 -30.15234375 90.54492188 C-32.93084883 93.12733476 -32.93084883 93.12733476 -34.96875 96.2890625 C-35.62875 96.2890625 -36.28875 96.2890625 -36.96875 96.2890625 C-36.97421844 94.51499779 -36.97421844 94.51499779 -36.97979736 92.70509338 C-37.01680037 81.5381794 -37.07463127 70.37153983 -37.15265274 59.20483494 C-37.19209689 53.46442616 -37.22430054 47.72417008 -37.23974609 41.98364258 C-37.25493261 36.43970277 -37.2894142 30.89618287 -37.33705902 25.35243034 C-37.35185214 23.2414713 -37.35978982 21.13045231 -37.36063385 19.0194416 C-37.36301144 16.0536071 -37.39015541 13.08892558 -37.42285156 10.12329102 C-37.4178212 9.2579776 -37.41279083 8.39266418 -37.40760803 7.50112915 C-37.54871179 -0.81663861 -40.6792307 -8.27773836 -45.96875 -14.7109375 C-55.73845193 -22.60408283 -64.44297338 -24.15708098 -76.72851562 -24.14331055 C-78.1089973 -24.15233981 -79.48947098 -24.16266987 -80.86993408 -24.17419434 C-84.59663572 -24.20165406 -88.32318478 -24.21103373 -92.04997444 -24.21704841 C-95.95244458 -24.22646097 -99.85480204 -24.25266658 -103.75720215 -24.27705383 C-111.13760085 -24.32064352 -118.51797758 -24.34923663 -125.89846563 -24.37237722 C-134.30484412 -24.39946938 -142.71110881 -24.44337834 -151.11740589 -24.48866594 C-168.40112858 -24.58140428 -185.68487588 -24.65313437 -202.96875 -24.7109375 C-200.06104889 -27.8547805 -196.933982 -29.14582598 -192.96875 -30.5859375 C-192.26524414 -30.8435083 -191.56173828 -31.1010791 -190.83691406 -31.36645508 C-128.61392819 -53.53731512 -49.71212832 -45.86073296 0 0 Z " fill="#EAE9FC" transform="translate(419.96875,68.7109375)"/>
<path d="M0 0 C0 38.94 0 77.88 0 118 C-14.55948143 108.29367905 -25.79370915 94.42841695 -32 78 C-32.31839844 77.22269531 -32.63679688 76.44539063 -32.96484375 75.64453125 C-37.62023511 62.15033232 -36.60323054 45.00617419 -31 32 C-30.67257813 31.14792969 -30.34515625 30.29585938 -30.0078125 29.41796875 C-26.09192209 20.34282126 -10.97503454 0 0 0 Z " fill="#F0F0FE" transform="translate(41,266)"/>
<path d="M0 0 C0.06956643 8.64932083 0.12284485 17.29854508 0.15543652 25.94808483 C0.17108035 29.96459536 0.19229492 33.98091422 0.22631836 37.99731445 C0.25895797 41.87470186 0.27686267 45.75190512 0.28463173 49.62941933 C0.29016701 51.10738333 0.30097619 52.58533746 0.31719017 54.06322289 C0.33902641 56.13636282 0.34196446 58.20874564 0.34057617 60.28198242 C0.35056892 62.05069954 0.35056892 62.05069954 0.36076355 63.85514832 C-0.17857488 68.55667472 -2.38297083 71.98580903 -6 75 C-9.37978558 76.12659519 -11.92816136 76.12020983 -15.4909668 76.11352539 C-16.47185776 76.11374443 -16.47185776 76.11374443 -17.4725647 76.1139679 C-19.63148326 76.11327188 -21.79031528 76.10549408 -23.94921875 76.09765625 C-25.44708713 76.09579096 -26.94495611 76.09436758 -28.44282532 76.09336853 C-32.38345019 76.08955207 -36.32403814 76.0797292 -40.26464844 76.06866455 C-44.28645325 76.05843172 -48.30826404 76.0538669 -52.33007812 76.04882812 C-60.22006901 76.03810616 -68.11002991 76.02104017 -76 76 C-71.86104798 71.06652416 -67.56028223 66.41605053 -63.00073242 61.87133789 C-62.32846619 61.19731934 -61.65619995 60.52330078 -60.96356201 59.82885742 C-58.76335571 57.62428542 -56.55955475 55.42334889 -54.35546875 53.22265625 C-52.81929656 51.68580997 -51.2832728 50.14881532 -49.74739075 48.61167908 C-46.54065417 45.40347311 -43.33212772 42.197071 -40.12231445 38.99194336 C-35.99831471 34.87366941 -31.87885915 30.75088363 -27.7607069 26.62676334 C-24.59622692 23.45868186 -21.42938404 20.29297105 -18.26180458 17.12798882 C-16.74074104 15.60759419 -15.22042503 14.08645133 -13.70085716 12.56456184 C-11.58707168 10.44825349 -9.47013644 8.33514867 -7.35229492 6.22290039 C-6.4040258 5.27159492 -6.4040258 5.27159492 -5.43659973 4.30107117 C-1.11426808 0 -1.11426808 0 0 0 Z " fill="#2768FB" transform="translate(132,58)"/>
<path d="M0 0 C0.82838585 0.0015486 1.65677171 0.0030972 2.51026016 0.00469273 C3.38358366 0.00242718 4.25690716 0.00016162 5.15669501 -0.00217259 C8.10631471 -0.00854288 11.05588883 -0.0076813 14.00551468 -0.00685817 C16.11076533 -0.00984777 18.21601543 -0.01324983 20.3212648 -0.01703578 C26.05669707 -0.0259001 31.79211445 -0.02821491 37.5275529 -0.02885157 C42.3067024 -0.02979859 47.0858484 -0.03347448 51.86499655 -0.03702366 C63.13514502 -0.0451774 74.40528548 -0.04760705 85.67543656 -0.04689723 C97.32190432 -0.04629614 108.96832581 -0.05685219 120.61478186 -0.0726409 C130.59606922 -0.08569267 140.57734142 -0.09108213 150.55863726 -0.09044182 C156.52789935 -0.09018614 162.49712035 -0.09307556 168.46637398 -0.10361987 C174.07806379 -0.11326126 179.68967288 -0.11340742 185.30136544 -0.10610324 C187.3662133 -0.10505246 189.43106609 -0.10744928 191.49590546 -0.1134637 C194.30441659 -0.12111721 197.11264433 -0.11658329 199.92114884 -0.10883266 C201.16038154 -0.116548 201.16038154 -0.116548 202.42464924 -0.12441921 C208.05092513 -0.08986569 208.05092513 -0.08986569 210.27919632 2.1384055 C210.52919632 4.6384055 210.52919632 4.6384055 210.27919632 7.1384055 C207.70171206 9.71588977 205.9731925 9.38301927 202.46014655 9.41055441 C201.6392466 9.40677509 200.81834666 9.40299576 199.97257096 9.39910191 C199.10318215 9.40292746 198.23379335 9.40675301 197.33805943 9.41069448 C194.40765201 9.42106199 191.47743917 9.41702525 188.54701859 9.4130637 C186.4530938 9.41740811 184.3591706 9.42259034 182.26524979 9.42855138 C176.56491755 9.44198187 170.86465145 9.44251556 165.16430646 9.43998808 C160.4125358 9.4389211 155.66077867 9.44379469 150.90901089 9.4485935 C139.70256183 9.4597027 128.49614628 9.46011816 117.28969437 9.45407933 C105.71306615 9.44803713 94.13655939 9.46035363 82.5599519 9.4816494 C72.63467355 9.49923887 62.70943396 9.50527096 52.78414059 9.50201166 C46.85005601 9.50019441 40.91605807 9.50287876 34.98198754 9.5167262 C29.40307403 9.52925682 23.82435049 9.52740578 18.24544007 9.51431531 C16.1939124 9.51193954 14.14237157 9.51471971 12.090859 9.52293843 C9.29795069 9.53332336 6.50568961 9.52537209 3.71280533 9.5126273 C2.89413611 9.52000159 2.07546688 9.52737587 1.2319895 9.53497362 C-4.20369668 9.482513 -4.20369668 9.482513 -6.76352924 7.77907914 C-7.72080368 6.1384055 -7.72080368 6.1384055 -7.47080368 3.5134055 C-6.1069092 -0.80559368 -4.24300837 0.01833459 0 0 Z " fill="#403C95" transform="translate(110.72080367803574,311.8615944981575)"/>
<path d="M0 0 C1.24257878 0.00334608 1.24257878 0.00334608 2.51026016 0.00675976 C3.82024541 0.00441978 3.82024541 0.00441978 5.15669501 0.00203252 C8.10631833 -0.00198139 11.0558909 0.00121368 14.00551468 0.00434887 C16.11076503 0.002995 18.21601514 0.00121514 20.3212648 -0.00096118 C26.05670003 -0.00553741 31.79211735 -0.00374511 37.5275529 -0.0005821 C43.51642824 0.00194087 49.505302 -0.00039589 55.4941774 -0.00196826 C65.55459993 -0.00379029 75.61501514 -0.00138294 85.67543656 0.00337231 C97.32189097 0.00881352 108.96832787 0.00705343 120.61478186 0.00154591 C130.59606852 -0.00298605 140.5773499 -0.00363532 150.55863726 -0.00101542 C156.52788575 0.00054708 162.49712601 0.00074186 168.46637398 -0.00255191 C174.07804617 -0.00543177 179.6896957 -0.00345279 185.30136544 0.00234234 C187.36621173 0.00366938 189.43105991 0.00327677 191.49590546 0.00107968 C194.30434603 -0.00163404 197.11271301 0.00175209 199.92114884 0.00675976 C200.74730397 0.00452904 201.5734591 0.00229832 202.42464924 0 C208.05089646 0.01959348 208.05089646 0.01959348 210.27919632 1.13374341 C210.32173988 3.13329087 210.32000415 5.13415977 210.27919632 7.13374341 C208.46252196 8.95041776 205.9509077 8.261746 203.53221953 8.27214891 C202.69994273 8.27060031 201.86766592 8.2690517 201.01016861 8.26745617 C199.69405804 8.27085451 199.69405804 8.27085451 198.35135937 8.2743215 C195.38792019 8.28069184 192.42452639 8.2798302 189.46108109 8.27900708 C187.34597835 8.28199667 185.23087616 8.28539873 183.11577469 8.28918469 C177.35348379 8.29804903 171.59120771 8.30036382 165.82891065 8.30100048 C161.0273932 8.3019475 156.22587925 8.30562338 151.42436314 8.30917257 C140.10147697 8.31732632 128.77859876 8.31975596 117.45570999 8.31904614 C105.75471075 8.31844504 94.05375756 8.32900111 82.35276997 8.3447898 C72.32477387 8.35784154 62.29679287 8.36323104 52.26878834 8.36259073 C46.27158065 8.36233505 40.27441386 8.36522453 34.27721459 8.37576878 C28.63926008 8.3854101 23.0013859 8.38555637 17.36342865 8.37825215 C15.28890545 8.37720136 13.21437735 8.37959824 11.1398626 8.38561261 C8.31821473 8.393266 5.49684894 8.38873227 2.67520767 8.38098156 C1.84516159 8.38612513 1.01511551 8.39126869 0.15991652 8.39656812 C-5.49253249 8.3620146 -5.49253249 8.3620146 -7.72080368 6.13374341 C-6.98252671 0.0798723 -5.94033562 0.02075959 0 0 Z " fill="#332E8E" transform="translate(110.72080367803574,246.8662565946579)"/>
<path d="M0 0 C1.24943838 0.00334608 1.24943838 0.00334608 2.52411795 0.00675976 C3.40223056 0.00519977 4.28034318 0.00363978 5.18506527 0.00203252 C8.15084202 -0.00198139 11.11656829 0.00121367 14.08234549 0.00434887 C16.19907044 0.00299501 18.31579516 0.00121516 20.43251944 -0.00096118 C26.19887823 -0.00553724 31.96521923 -0.00374525 37.73157835 -0.0005821 C43.7516181 0.00194062 49.77165627 -0.00039579 55.79169607 -0.00196826 C65.90339321 -0.00379022 76.01508305 -0.00138297 86.12677908 0.00337231 C97.83573745 0.00881498 109.54467841 0.00705234 121.25363636 0.00154591 C131.28671162 -0.00298449 141.31978163 -0.00363614 151.35285759 -0.00101542 C157.35393227 0.00054776 163.35499875 0.00073999 169.3560729 -0.00255191 C174.99646909 -0.00542956 180.63684272 -0.00345691 186.27723646 0.00234234 C188.3537907 0.00367052 190.43034681 0.00327486 192.50690031 0.00107968 C195.32882772 -0.00162959 198.15068162 0.00174654 200.97260427 0.00675976 C201.8055632 0.00452904 202.63852212 0.00229832 203.49672222 0 C209.13421128 0.01959358 209.13421128 0.01959358 210.24836111 1.13374341 C210.43586111 3.57124341 210.43586111 3.57124341 210.24836111 6.13374341 C207.66442457 8.71767994 205.91965197 8.37668492 202.39847612 8.40123022 C201.57300311 8.39676877 200.7475301 8.39230733 199.89704275 8.38771069 C199.02286483 8.39083067 198.1486869 8.39395065 197.24801874 8.39716518 C194.30145088 8.40518017 191.35508697 8.39880796 188.40851736 8.39253247 C186.30311858 8.39524078 184.19772075 8.3988008 182.09232473 8.40315259 C176.36106322 8.41229791 170.62987342 8.40872352 164.89861059 8.40239441 C158.91240887 8.39734548 152.92621346 8.40202277 146.9400115 8.40516675 C136.88555688 8.40880963 126.8311316 8.40399885 116.77668142 8.39448559 C105.13757269 8.38360044 93.49853401 8.38712579 81.85942698 8.3981384 C71.88236181 8.40720211 61.90531779 8.40850105 51.92824984 8.40326107 C45.96236093 8.40013631 39.996505 8.39974584 34.03061819 8.40633404 C28.42301149 8.41209357 22.81549548 8.40813624 17.20789862 8.39654553 C15.14466519 8.39389146 13.08142418 8.39467667 11.01819372 8.39907086 C8.21191777 8.4044984 5.40593641 8.39772635 2.59967947 8.38771069 C1.77420646 8.39217213 0.94873344 8.39663358 0.0982461 8.40123022 C-5.52333883 8.36204346 -5.52333883 8.36204346 -7.75163889 6.13374341 C-7.01133673 0.06326574 -5.95450526 0.02069539 0 0 Z " fill="#36318F" transform="translate(110.75163888931274,377.8662565946579)"/>
<path d="M0 0 C1.24943838 0.00334608 1.24943838 0.00334608 2.52411795 0.00675976 C3.40223056 0.00519977 4.28034318 0.00363978 5.18506527 0.00203252 C8.15084202 -0.00198139 11.11656829 0.00121367 14.08234549 0.00434887 C16.19907044 0.00299501 18.31579516 0.00121516 20.43251944 -0.00096118 C26.19887823 -0.00553724 31.96521923 -0.00374525 37.73157835 -0.0005821 C43.7516181 0.00194062 49.77165627 -0.00039579 55.79169607 -0.00196826 C65.90339321 -0.00379022 76.01508305 -0.00138297 86.12677908 0.00337231 C97.83573745 0.00881498 109.54467841 0.00705234 121.25363636 0.00154591 C131.28671162 -0.00298449 141.31978163 -0.00363614 151.35285759 -0.00101542 C157.35393227 0.00054776 163.35499875 0.00073999 169.3560729 -0.00255191 C174.99646909 -0.00542956 180.63684272 -0.00345691 186.27723646 0.00234234 C188.3537907 0.00367052 190.43034681 0.00327486 192.50690031 0.00107968 C195.32882772 -0.00162959 198.15068162 0.00174654 200.97260427 0.00675976 C201.8055632 0.00452904 202.63852212 0.00229832 203.49672222 0 C209.13421128 0.01959358 209.13421128 0.01959358 210.24836111 1.13374341 C210.43586111 3.57124341 210.43586111 3.57124341 210.24836111 6.13374341 C207.66442457 8.71767994 205.91965197 8.37668492 202.39847612 8.40123022 C201.57300311 8.39676877 200.7475301 8.39230733 199.89704275 8.38771069 C199.02286483 8.39083067 198.1486869 8.39395065 197.24801874 8.39716518 C194.30145088 8.40518017 191.35508697 8.39880796 188.40851736 8.39253247 C186.30311858 8.39524078 184.19772075 8.3988008 182.09232473 8.40315259 C176.36106322 8.41229791 170.62987342 8.40872352 164.89861059 8.40239441 C158.91240887 8.39734548 152.92621346 8.40202277 146.9400115 8.40516675 C136.88555688 8.40880963 126.8311316 8.40399885 116.77668142 8.39448559 C105.13757269 8.38360044 93.49853401 8.38712579 81.85942698 8.3981384 C71.88236181 8.40720211 61.90531779 8.40850105 51.92824984 8.40326107 C45.96236093 8.40013631 39.996505 8.39974584 34.03061819 8.40633404 C28.42301149 8.41209357 22.81549548 8.40813624 17.20789862 8.39654553 C15.14466519 8.39389146 13.08142418 8.39467667 11.01819372 8.39907086 C8.21191777 8.4044984 5.40593641 8.39772635 2.59967947 8.38771069 C1.77420646 8.39217213 0.94873344 8.39663358 0.0982461 8.40123022 C-5.52333883 8.36204346 -5.52333883 8.36204346 -7.75163889 6.13374341 C-7.01133673 0.06326574 -5.95450526 0.02069539 0 0 Z " fill="#36318F" transform="translate(110.75163888931274,181.8662565946579)"/>
<path d="M0 0 C31.35 0 62.7 0 95 0 C86.21906457 10.53712251 74.43704506 15.68174672 60.9375 17.75 C39.67491428 19.10000544 17.51586173 14.87150445 0 2 C0 1.34 0 0.68 0 0 Z " fill="#EFEFFB" transform="translate(109,468)"/>
</svg>
